<svg width="20" height="24" viewBox="0 0 20 24" fill="none" xmlns="http://www.w3.org/2000/svg">
<path d="M19.0303 6.80596C18.9972 6.44774 18.732 6.18718 18.3673 6.18718H14.7202V4.78701C14.7202 2.14933 12.532 0 9.84665 0C7.16126 0 4.97306 2.14933 4.97306 4.78701V6.18718H1.32603C0.961327 6.18718 0.663015 6.44772 0.663015 6.80596L0 23.3163C0 23.4791 0.0663729 23.6745 0.198887 23.8046C0.331401 23.9348 0.497217 24 0.663027 24H19.3286C19.5275 24 19.6933 23.9348 19.8258 23.8046C19.9583 23.6745 20.0247 23.5116 19.9916 23.3163L19.0303 6.80596ZM6.29926 4.78701C6.29926 2.86575 7.89058 1.30247 9.84683 1.30247C11.8026 1.3027 13.3942 2.8982 13.3942 4.78701V6.18718L6.29926 6.1874V4.78701ZM1.3593 22.6976L1.95595 7.48988H4.973V13.1235H6.29903L6.29926 7.52239H13.361V13.156H14.687V7.52239H17.7041L18.6324 22.6975L1.3593 22.6976Z" fill="#333333"/>
</svg>
