<svg width="24" height="22" viewBox="0 0 24 22" fill="none" xmlns="http://www.w3.org/2000/svg">
<path d="M12.037 21.9999C11.8356 22.0026 11.6357 21.961 11.4495 21.8777C11.2633 21.7945 11.0948 21.6713 10.954 21.5155L1.86342 11.6985C1.25298 11.0408 0.773099 10.2556 0.453086 9.39085C0.133072 8.52612 -0.0203585 7.60003 0.00216481 6.66912C0.0246881 5.73821 0.222692 4.82203 0.584085 3.97653C0.945477 3.13103 1.46267 2.37396 2.10409 1.75155C2.7221 1.16198 3.44312 0.711919 4.22468 0.427879C5.00623 0.143839 5.83252 0.0315628 6.65487 0.0976628C8.31864 0.21665 9.88556 0.985031 11.0634 2.25953L12.037 3.31093L13.2404 2.01145C13.8485 1.35255 14.5747 0.834539 15.3745 0.489088C16.1744 0.143638 17.0311 -0.0219877 17.8922 0.00233931C18.7534 0.0266663 19.6009 0.240435 20.3829 0.630572C21.1649 1.02071 21.865 1.57902 22.4404 2.27135C22.9899 2.9367 23.4096 3.71475 23.6746 4.55908C23.9396 5.40341 24.0445 6.29673 23.9829 7.18576C23.8727 8.98248 23.1611 10.6746 21.9809 11.9466L13.12 21.5155C12.9793 21.6713 12.8107 21.7945 12.6246 21.8777C12.4384 21.961 12.2385 22.0026 12.037 21.9999ZM6.23917 1.50347C5.0429 1.48935 3.88464 1.95683 2.99018 2.81477C2.47963 3.30598 2.06759 3.90486 1.77944 4.57452C1.49128 5.24418 1.33311 5.97045 1.31467 6.70861C1.29622 7.44677 1.41789 8.18119 1.67218 8.86666C1.92646 9.55212 2.30799 10.1741 2.79327 10.6944L11.8839 20.5114C11.9034 20.5343 11.927 20.5526 11.9534 20.5651C11.9798 20.5776 12.0082 20.5841 12.037 20.5841C12.0658 20.5841 12.0943 20.5776 12.1207 20.5651C12.1471 20.5526 12.1707 20.5343 12.1902 20.5114L21.0511 10.9424C23.0421 8.79239 23.228 5.33104 21.4668 3.22824C21.0119 2.67689 20.4574 2.23193 19.8373 1.92075C19.2171 1.60958 18.5446 1.43877 17.8611 1.41885C17.1775 1.39893 16.4974 1.53032 15.8627 1.80492C15.228 2.07953 14.652 2.49155 14.1702 3.0156L12.4965 4.81125C12.372 4.94187 12.2052 5.01494 12.0316 5.01494C11.858 5.01494 11.6912 4.94187 11.5667 4.81125L10.1336 3.26368C9.62372 2.70786 9.01723 2.26625 8.34893 1.96419C7.68062 1.66213 6.96365 1.50556 6.23917 1.50347Z" fill="#333333"/>
</svg>
