<svg width="20" height="15" viewBox="0 0 20 15" fill="none" xmlns="http://www.w3.org/2000/svg">
<path d="M0.00238037 0.00219727H20V14.9976H0.00238037V0.00219727Z" fill="#F5F5F5"/>
<path d="M0.00238037 0.00219727H20V1.15569H0.00238037V0.00219727Z" fill="#BF0A30"/>
<path d="M0.00238037 2.30933H20V3.46282H0.00238037V2.30933Z" fill="#BF0A30"/>
<path d="M0.00238037 4.61621H20V5.76971H0.00238037V4.61621Z" fill="#BF0A30"/>
<path d="M0.00238037 6.92334H20V8.07683H0.00238037V6.92334Z" fill="#BF0A30"/>
<path d="M0.00238037 9.23022H20V10.3837H0.00238037V9.23022Z" fill="#BF0A30"/>
<path d="M0.00238037 11.5374H20V12.6908H0.00238037V11.5374Z" fill="#BF0A30"/>
<path d="M0.00238037 13.8442H20V14.9977H0.00238037V13.8442Z" fill="#BF0A30"/>
<path d="M0.00238037 0H8.00158V8.07447H0.00238037V0Z" fill="#002868"/>
<path d="M0.759218 0.750057L0.686418 0.430908L0.614418 0.750057H0.378418L0.569618 0.947246L0.496018 1.26639L0.686418 1.06807L0.877618 1.26639L0.804018 0.947246L0.995218 0.750057H0.759218Z" fill="#F5F5F5"/>
<path d="M2.08563 0.750057L2.01283 0.430908L1.94003 0.750057H1.70483L1.89523 0.947246L1.82243 1.26639L2.01283 1.06807L2.20323 1.26639L2.13043 0.947246L2.32083 0.750057H2.08563Z" fill="#F5F5F5"/>
<path d="M3.412 0.750057L3.3392 0.430908L3.2664 0.750057H3.0304L3.2216 0.947246L3.1488 1.26639L3.3392 1.06807L3.5296 1.26639L3.4568 0.947246L3.6472 0.750057H3.412Z" fill="#F5F5F5"/>
<path d="M4.73761 0.750057L4.66481 0.430908L4.59281 0.750057H4.35681L4.54801 0.947246L4.47441 1.26639L4.66481 1.06807L4.85601 1.26639L4.78241 0.947246L4.97361 0.750057H4.73761Z" fill="#F5F5F5"/>
<path d="M6.10883 0.947246L6.30003 0.750057H6.06403L5.99123 0.430908L5.91843 0.750057H5.68323L5.87363 0.947246L5.80083 1.26639L5.99123 1.06807L6.18163 1.26639L6.10883 0.947246Z" fill="#F5F5F5"/>
<path d="M7.43519 0.947246L7.62559 0.750057H7.39039L7.31759 0.430908L7.24479 0.750057H7.00879L7.19999 0.947246L7.12719 1.26639L7.31759 1.06807L7.50799 1.26639L7.43519 0.947246Z" fill="#F5F5F5"/>
<path d="M1.34963 1.24023L1.27683 1.55938H1.04163L1.23203 1.75657L1.15923 2.07572L1.34963 1.87853L1.54003 2.07572L1.46723 1.75657L1.65843 1.55938H1.42243L1.34963 1.24023Z" fill="#F5F5F5"/>
<path d="M2.74884 1.55938L2.67604 1.24023L2.60324 1.55938H2.36804L2.55844 1.75657L2.48564 2.07572L2.67604 1.87853L2.86644 2.07572L2.79364 1.75657L2.98404 1.55938H2.74884Z" fill="#F5F5F5"/>
<path d="M4.0744 1.55938L4.0024 1.24023L3.9296 1.55938H3.6936L3.8848 1.75657L3.8112 2.07572L4.0024 1.87853L4.1928 2.07572L4.12 1.75657L4.3104 1.55938H4.0744Z" fill="#F5F5F5"/>
<path d="M5.40082 1.55938L5.32802 1.24023L5.25602 1.55938H5.02002L5.21042 1.75657L5.13762 2.07572L5.32802 1.87853L5.51842 2.07572L5.44562 1.75657L5.63682 1.55938H5.40082Z" fill="#F5F5F5"/>
<path d="M6.72724 1.55938L6.65444 1.24023L6.58164 1.55938H6.34644L6.53684 1.75657L6.46404 2.07572L6.65444 1.87853L6.84484 2.07572L6.77204 1.75657L6.96244 1.55938H6.72724Z" fill="#F5F5F5"/>
<path d="M0.759218 2.36985L0.686418 2.04956L0.614418 2.36985L0.378418 2.36871L0.569618 2.5659L0.496018 2.88619L0.686418 2.68786L0.877618 2.88619L0.804018 2.5659L0.995218 2.36871L0.759218 2.36985Z" fill="#F5F5F5"/>
<path d="M2.08563 2.36985L2.01283 2.04956L1.94003 2.36985L1.70483 2.36871L1.89523 2.5659L1.82243 2.88619L2.01283 2.68786L2.20323 2.88619L2.13043 2.5659L2.32083 2.36871L2.08563 2.36985Z" fill="#F5F5F5"/>
<path d="M3.412 2.36985L3.3392 2.04956L3.2664 2.36985L3.0304 2.36871L3.2216 2.5659L3.1488 2.88619L3.3392 2.68786L3.5296 2.88619L3.4568 2.5659L3.6472 2.36871L3.412 2.36985Z" fill="#F5F5F5"/>
<path d="M4.73761 2.36985L4.66481 2.04956L4.59281 2.36985L4.35681 2.36871L4.54801 2.5659L4.47441 2.88619L4.66481 2.68786L4.85601 2.88619L4.78241 2.5659L4.97361 2.36871L4.73761 2.36985Z" fill="#F5F5F5"/>
<path d="M6.06403 2.36985L5.99123 2.04956L5.91843 2.36985L5.68323 2.36871L5.87363 2.5659L5.80083 2.88619L5.99123 2.68786L6.18163 2.88619L6.10883 2.5659L6.30003 2.36871L6.06403 2.36985Z" fill="#F5F5F5"/>
<path d="M7.43519 2.5659L7.62559 2.36871L7.39039 2.36985L7.31759 2.04956L7.24479 2.36985L7.00879 2.36871L7.19999 2.5659L7.12719 2.88619L7.31759 2.68786L7.50799 2.88619L7.43519 2.5659Z" fill="#F5F5F5"/>
<path d="M1.34963 2.81885L1.27683 3.138H1.04163L1.23203 3.33519L1.15923 3.65433L1.34963 3.45715L1.54003 3.65433L1.46723 3.33519L1.65843 3.138H1.42243L1.34963 2.81885Z" fill="#F5F5F5"/>
<path d="M2.74884 3.138L2.67604 2.81885L2.60324 3.138H2.36804L2.55844 3.33519L2.48564 3.65433L2.67604 3.45715L2.86644 3.65433L2.79364 3.33519L2.98404 3.138H2.74884Z" fill="#F5F5F5"/>
<path d="M4.0744 3.138L4.0024 2.81885L3.9296 3.138H3.6936L3.8848 3.33519L3.8112 3.65433L4.0024 3.45715L4.1928 3.65433L4.12 3.33519L4.3104 3.138H4.0744Z" fill="#F5F5F5"/>
<path d="M5.40082 3.138L5.32802 2.81885L5.25602 3.138H5.02002L5.21042 3.33519L5.13762 3.65433L5.32802 3.45715L5.51842 3.65433L5.44562 3.33519L5.63682 3.138H5.40082Z" fill="#F5F5F5"/>
<path d="M6.72724 3.138L6.65444 2.81885L6.58164 3.138H6.34644L6.53684 3.33519L6.46404 3.65433L6.65444 3.45715L6.84484 3.65433L6.77204 3.33519L6.96244 3.138H6.72724Z" fill="#F5F5F5"/>
<path d="M0.759218 3.94846L0.686418 3.62817L0.614418 3.94846L0.378418 3.94732L0.569618 4.14451L0.496018 4.46366L0.686418 4.26647L0.877618 4.46366L0.804018 4.14451L0.995218 3.94732L0.759218 3.94846Z" fill="#F5F5F5"/>
<path d="M2.08563 3.94846L2.01283 3.62817L1.94003 3.94846L1.70483 3.94732L1.89523 4.14451L1.82243 4.46366L2.01283 4.26647L2.20323 4.46366L2.13043 4.14451L2.32083 3.94732L2.08563 3.94846Z" fill="#F5F5F5"/>
<path d="M3.412 3.94846L3.3392 3.62817L3.2664 3.94846L3.0304 3.94732L3.2216 4.14451L3.1488 4.46366L3.3392 4.26647L3.5296 4.46366L3.4568 4.14451L3.6472 3.94732L3.412 3.94846Z" fill="#F5F5F5"/>
<path d="M4.73761 3.94846L4.66481 3.62817L4.59281 3.94846L4.35681 3.94732L4.54801 4.14451L4.47441 4.46366L4.66481 4.26647L4.85601 4.46366L4.78241 4.14451L4.97361 3.94732L4.73761 3.94846Z" fill="#F5F5F5"/>
<path d="M6.06403 3.94846L5.99123 3.62817L5.91843 3.94846L5.68323 3.94732L5.87363 4.14451L5.80083 4.46366L5.99123 4.26647L6.18163 4.46366L6.10883 4.14451L6.30003 3.94732L6.06403 3.94846Z" fill="#F5F5F5"/>
<path d="M7.43519 4.14451L7.62559 3.94732L7.39039 3.94846L7.31759 3.62817L7.24479 3.94846L7.00879 3.94732L7.19999 4.14451L7.12719 4.46366L7.31759 4.26647L7.50799 4.46366L7.43519 4.14451Z" fill="#F5F5F5"/>
<path d="M1.34963 4.42017L1.27683 4.73931H1.04163L1.23203 4.9365L1.15923 5.25565L1.34963 5.05846L1.54003 5.25565L1.46723 4.9365L1.65843 4.73931H1.42243L1.34963 4.42017Z" fill="#F5F5F5"/>
<path d="M2.74884 4.73931L2.67604 4.42017L2.60324 4.73931H2.36804L2.55844 4.9365L2.48564 5.25565L2.67604 5.05846L2.86644 5.25565L2.79364 4.9365L2.98404 4.73931H2.74884Z" fill="#F5F5F5"/>
<path d="M4.0744 4.73931L4.0024 4.42017L3.9296 4.73931H3.6936L3.8848 4.9365L3.8112 5.25565L4.0024 5.05846L4.1928 5.25565L4.12 4.9365L4.3104 4.73931H4.0744Z" fill="#F5F5F5"/>
<path d="M5.40082 4.73931L5.32802 4.42017L5.25602 4.73931H5.02002L5.21042 4.9365L5.13762 5.25565L5.32802 5.05846L5.51842 5.25565L5.44562 4.9365L5.63682 4.73931H5.40082Z" fill="#F5F5F5"/>
<path d="M6.72724 4.73931L6.65444 4.42017L6.58164 4.73931H6.34644L6.53684 4.9365L6.46404 5.25565L6.65444 5.05846L6.84484 5.25565L6.77204 4.9365L6.96244 4.73931H6.72724Z" fill="#F5F5F5"/>
<path d="M0.759218 5.54978L0.686418 5.22949L0.614418 5.54978L0.378418 5.54864L0.569618 5.74583L0.496018 6.06612L0.686418 5.86779L0.877618 6.06612L0.804018 5.74583L0.995218 5.54864L0.759218 5.54978Z" fill="#F5F5F5"/>
<path d="M2.08563 5.54978L2.01283 5.22949L1.94003 5.54978L1.70483 5.54864L1.89523 5.74583L1.82243 6.06612L2.01283 5.86779L2.20323 6.06612L2.13043 5.74583L2.32083 5.54864L2.08563 5.54978Z" fill="#F5F5F5"/>
<path d="M3.412 5.54978L3.3392 5.22949L3.2664 5.54978L3.0304 5.54864L3.2216 5.74583L3.1488 6.06612L3.3392 5.86779L3.5296 6.06612L3.4568 5.74583L3.6472 5.54864L3.412 5.54978Z" fill="#F5F5F5"/>
<path d="M4.73761 5.54978L4.66481 5.22949L4.59281 5.54978L4.35681 5.54864L4.54801 5.74583L4.47441 6.06612L4.66481 5.86779L4.85601 6.06612L4.78241 5.74583L4.97361 5.54864L4.73761 5.54978Z" fill="#F5F5F5"/>
<path d="M6.06403 5.54978L5.99123 5.22949L5.91843 5.54978L5.68323 5.54864L5.87363 5.74583L5.80083 6.06612L5.99123 5.86779L6.18163 6.06612L6.10883 5.74583L6.30003 5.54864L6.06403 5.54978Z" fill="#F5F5F5"/>
<path d="M7.43519 5.74583L7.62559 5.54864L7.39039 5.54978L7.31759 5.22949L7.24479 5.54978L7.00879 5.54864L7.19999 5.74583L7.12719 6.06612L7.31759 5.86779L7.50799 6.06612L7.43519 5.74583Z" fill="#F5F5F5"/>
<path d="M1.34963 5.99902L1.27683 6.31817H1.04163L1.23203 6.51536L1.15923 6.83451L1.34963 6.63732L1.54003 6.83451L1.46723 6.51536L1.65843 6.31817H1.42243L1.34963 5.99902Z" fill="#F5F5F5"/>
<path d="M2.74884 6.31817L2.67604 5.99902L2.60324 6.31817H2.36804L2.55844 6.51536L2.48564 6.83451L2.67604 6.63732L2.86644 6.83451L2.79364 6.51536L2.98404 6.31817H2.74884Z" fill="#F5F5F5"/>
<path d="M4.0744 6.31817L4.0024 5.99902L3.9296 6.31817H3.6936L3.8848 6.51536L3.8112 6.83451L4.0024 6.63732L4.1928 6.83451L4.12 6.51536L4.3104 6.31817H4.0744Z" fill="#F5F5F5"/>
<path d="M5.40082 6.31817L5.32802 5.99902L5.25602 6.31817H5.02002L5.21042 6.51536L5.13762 6.83451L5.32802 6.63732L5.51842 6.83451L5.44562 6.51536L5.63682 6.31817H5.40082Z" fill="#F5F5F5"/>
<path d="M6.72724 6.31817L6.65444 5.99902L6.58164 6.31817H6.34644L6.53684 6.51536L6.46404 6.83451L6.65444 6.63732L6.84484 6.83451L6.77204 6.51536L6.96244 6.31817H6.72724Z" fill="#F5F5F5"/>
<path d="M0.759218 7.12839L0.686418 6.80811L0.614418 7.12839L0.378418 7.12725L0.569618 7.32444L0.496018 7.64359L0.686418 7.4464L0.877618 7.64359L0.804018 7.32444L0.995218 7.12725L0.759218 7.12839Z" fill="#F5F5F5"/>
<path d="M2.08563 7.12839L2.01283 6.80811L1.94003 7.12839L1.70483 7.12725L1.89523 7.32444L1.82243 7.64359L2.01283 7.4464L2.20323 7.64359L2.13043 7.32444L2.32083 7.12725L2.08563 7.12839Z" fill="#F5F5F5"/>
<path d="M3.412 7.12839L3.3392 6.80811L3.2664 7.12839L3.0304 7.12725L3.2216 7.32444L3.1488 7.64359L3.3392 7.4464L3.5296 7.64359L3.4568 7.32444L3.6472 7.12725L3.412 7.12839Z" fill="#F5F5F5"/>
<path d="M4.73761 7.12839L4.66481 6.80811L4.59281 7.12839L4.35681 7.12725L4.54801 7.32444L4.47441 7.64359L4.66481 7.4464L4.85601 7.64359L4.78241 7.32444L4.97361 7.12725L4.73761 7.12839Z" fill="#F5F5F5"/>
<path d="M6.06403 7.12839L5.99123 6.80811L5.91843 7.12839L5.68323 7.12725L5.87363 7.32444L5.80083 7.64359L5.99123 7.4464L6.18163 7.64359L6.10883 7.32444L6.30003 7.12725L6.06403 7.12839Z" fill="#F5F5F5"/>
<path d="M7.43519 7.32444L7.62559 7.12725L7.39039 7.12839L7.31759 6.80811L7.24479 7.12839L7.00879 7.12725L7.19999 7.32444L7.12719 7.64359L7.31759 7.4464L7.50799 7.64359L7.43519 7.32444Z" fill="#F5F5F5"/>
</svg>
