<svg width="18" height="18" viewBox="0 0 18 18" fill="none" xmlns="http://www.w3.org/2000/svg">
<path d="M9.00001 3.36011C8.43337 3.36011 7.87945 3.52814 7.4083 3.84295C6.93716 4.15776 6.56994 4.60521 6.3531 5.12872C6.13625 5.65223 6.07951 6.22829 6.19006 6.78404C6.30061 7.3398 6.57347 7.85029 6.97415 8.25097C7.37483 8.65165 7.88532 8.92451 8.44108 9.03506C8.99683 9.1456 9.57289 9.08887 10.0964 8.87202C10.6199 8.65518 11.0674 8.28796 11.3822 7.81682C11.697 7.34567 11.865 6.79175 11.865 6.22511C11.865 5.46526 11.5632 4.73654 11.0259 4.19925C10.4886 3.66195 9.75986 3.36011 9.00001 3.36011V3.36011ZM9.00001 8.09011C8.63115 8.09011 8.27057 7.98073 7.96387 7.7758C7.65717 7.57087 7.41813 7.2796 7.27698 6.93881C7.13582 6.59803 7.09889 6.22304 7.17085 5.86126C7.24281 5.49949 7.42043 5.16718 7.68126 4.90635C7.94208 4.64553 8.27439 4.4679 8.63617 4.39594C8.99794 4.32398 9.37293 4.36091 9.71372 4.50207C10.0545 4.64323 10.3458 4.88227 10.5507 5.18897C10.7556 5.49567 10.865 5.85624 10.865 6.22511C10.8637 6.71887 10.6666 7.19195 10.317 7.54063C9.96739 7.8893 9.49377 8.08511 9.00001 8.08511V8.09011Z" fill="#F8F8F8"/>
<path d="M8.99999 1C7.44258 1.0013 5.94898 1.61884 4.84539 2.71775C3.7418 3.81665 3.11791 5.30762 3.10999 6.865C3.10999 9.2 4.41999 11.155 5.37999 12.58L5.55499 12.84C6.51012 14.2243 7.53477 15.5594 8.62499 16.84L9.00499 17.285L9.38499 16.84C10.4751 15.5592 11.4997 14.2242 12.455 12.84L12.63 12.575C13.585 11.15 14.895 9.2 14.895 6.865C14.8871 5.30675 14.2625 3.81503 13.1578 2.71599C12.0531 1.61694 10.5583 0.99998 8.99999 1V1ZM11.795 12L11.615 12.265C10.755 13.555 9.61499 15 8.99999 15.715C8.40999 15 7.24499 13.555 6.38499 12.265L6.20999 12C5.32499 10.68 4.10999 8.875 4.10999 6.845C4.10999 6.20284 4.23647 5.56696 4.48221 4.97368C4.72796 4.3804 5.08815 3.84133 5.54223 3.38725C5.99631 2.93317 6.53538 2.57297 7.12866 2.32723C7.72195 2.08148 8.35782 1.955 8.99999 1.955C9.64215 1.955 10.278 2.08148 10.8713 2.32723C11.4646 2.57297 12.0037 2.93317 12.4577 3.38725C12.9118 3.84133 13.272 4.3804 13.5178 4.97368C13.7635 5.56696 13.89 6.20284 13.89 6.845C13.89 8.895 12.68 10.7 11.795 12V12Z" fill="#F8F8F8"/>
</svg>
