<svg width="145" height="36" viewBox="0 0 145 36" fill="none" xmlns="http://www.w3.org/2000/svg">
<path d="M0.536133 7.55469H4.19824L7.86035 24.166H7.91895L12.2402 7.55469H15.9023L20.2529 24.166H20.3115L23.9736 7.55469H27.6357L22.2598 29H18.5098L14.1006 12.1982H14.042L9.66211 29H5.88281L0.536133 7.55469ZM29.042 27.2275C30.4287 28.7119 32.3086 29.4541 34.6816 29.4541C37.0547 29.4541 38.9346 28.7119 40.3213 27.2275C41.708 25.7334 42.4014 23.7754 42.4014 21.3535C42.4014 18.9316 41.708 16.9785 40.3213 15.4941C38.9346 14 37.0547 13.2529 34.6816 13.2529C32.3086 13.2529 30.4287 14 29.042 15.4941C27.665 16.9785 26.9766 18.9316 26.9766 21.3535C26.9766 23.7754 27.665 25.7334 29.042 27.2275ZM38.0508 25.3379C37.2598 26.3633 36.1367 26.876 34.6816 26.876C33.2266 26.876 32.1035 26.3633 31.3125 25.3379C30.5215 24.3125 30.126 22.9844 30.126 21.3535C30.126 19.7031 30.5215 18.3701 31.3125 17.3545C32.1035 16.3389 33.2266 15.8311 34.6816 15.8311C36.1367 15.8311 37.2598 16.3438 38.0508 17.3691C38.8516 18.3848 39.252 19.7129 39.252 21.3535C39.252 22.9844 38.8516 24.3125 38.0508 25.3379ZM45.8291 27.2275C47.2158 28.7119 49.0957 29.4541 51.4688 29.4541C53.8418 29.4541 55.7217 28.7119 57.1084 27.2275C58.4951 25.7334 59.1885 23.7754 59.1885 21.3535C59.1885 18.9316 58.4951 16.9785 57.1084 15.4941C55.7217 14 53.8418 13.2529 51.4688 13.2529C49.0957 13.2529 47.2158 14 45.8291 15.4941C44.4521 16.9785 43.7637 18.9316 43.7637 21.3535C43.7637 23.7754 44.4521 25.7334 45.8291 27.2275ZM54.8379 25.3379C54.0469 26.3633 52.9238 26.876 51.4688 26.876C50.0137 26.876 48.8906 26.3633 48.0996 25.3379C47.3086 24.3125 46.9131 22.9844 46.9131 21.3535C46.9131 19.7031 47.3086 18.3701 48.0996 17.3545C48.8906 16.3389 50.0137 15.8311 51.4688 15.8311C52.9238 15.8311 54.0469 16.3438 54.8379 17.3691C55.6387 18.3848 56.0391 19.7129 56.0391 21.3535C56.0391 22.9844 55.6387 24.3125 54.8379 25.3379ZM72.1377 7.55469H75.2871V29H72.1377V27.2275H72.0791C71.6006 27.8525 70.9707 28.3799 70.1895 28.8096C69.4082 29.2393 68.4756 29.4541 67.3916 29.4541C65.3896 29.4541 63.749 28.7217 62.4697 27.2568C61.1904 25.792 60.5508 23.8242 60.5508 21.3535C60.5508 18.8828 61.1904 16.915 62.4697 15.4502C63.749 13.9854 65.3896 13.2529 67.3916 13.2529C68.4951 13.2529 69.4375 13.4678 70.2188 13.8975C71.0098 14.3174 71.6299 14.8594 72.0791 15.5234H72.1377V7.55469ZM67.9336 26.876C69.2227 26.876 70.2383 26.3828 70.9805 25.3965C71.7324 24.4004 72.1084 23.0527 72.1084 21.3535C72.1084 19.6445 71.7324 18.2969 70.9805 17.3105C70.2383 16.3242 69.2227 15.8311 67.9336 15.8311C66.6055 15.8311 65.5654 16.3584 64.8135 17.4131C64.0713 18.4678 63.7002 19.7812 63.7002 21.3535C63.7002 22.9258 64.0713 24.2393 64.8135 25.2939C65.5654 26.3486 66.6055 26.876 67.9336 26.876ZM78.1143 7.55469H81.3076V29H78.1143V7.55469ZM93.627 17.6914C93.627 16.3926 92.709 15.7432 90.873 15.7432C89.623 15.7432 88.7295 15.9531 88.1924 16.373C87.6553 16.793 87.3477 17.501 87.2695 18.4971H84.208C84.2861 16.915 84.8672 15.6455 85.9512 14.6885C87.0449 13.7314 88.6855 13.2529 90.873 13.2529C94.8086 13.2529 96.7764 15.04 96.7764 18.6143V25.9092C96.7764 26.4951 96.874 26.915 97.0693 27.1689C97.2744 27.4131 97.6699 27.5059 98.2559 27.4473V28.9414C97.6699 29.1562 97.0596 29.2637 96.4248 29.2637C95.585 29.2637 94.9502 29.1025 94.5205 28.7803C94.0908 28.458 93.8027 27.9209 93.6562 27.1689H93.5977C93.0898 27.8721 92.4014 28.4287 91.5322 28.8389C90.6729 29.249 89.6719 29.4541 88.5293 29.4541C86.9863 29.4541 85.7607 29.0537 84.8525 28.2529C83.9443 27.4424 83.4902 26.3828 83.4902 25.0742C83.4902 24.4199 83.5879 23.8389 83.7832 23.3311C83.9883 22.8135 84.2617 22.3789 84.6035 22.0273C84.9453 21.666 85.3896 21.3486 85.9365 21.0752C86.4932 20.8018 87.0693 20.582 87.665 20.416C88.2705 20.2402 88.9883 20.0693 89.8184 19.9033C90.2383 19.8252 90.5605 19.7617 90.7852 19.7129C91.0098 19.6641 91.2783 19.6006 91.5908 19.5225C91.9131 19.4443 92.1572 19.3711 92.3232 19.3027C92.4893 19.2344 92.6699 19.1465 92.8652 19.0391C93.0605 18.9316 93.2021 18.8193 93.29 18.7021C93.3877 18.5752 93.4658 18.4287 93.5244 18.2627C93.5928 18.0869 93.627 17.8965 93.627 17.6914ZM89.2178 26.9639C90.5557 26.9639 91.625 26.6367 92.4258 25.9824C93.2266 25.3281 93.627 24.3955 93.627 23.1846V20.8701C93.1289 21.2217 92.0596 21.5635 90.4189 21.8955C89.0811 22.1885 88.1191 22.5498 87.5332 22.9795C86.957 23.4092 86.6689 24.0049 86.6689 24.7666C86.6689 26.2314 87.5186 26.9639 89.2178 26.9639ZM108.349 13.2529C109.853 13.2529 111.078 13.6924 112.025 14.5713C112.973 15.4404 113.446 16.7197 113.446 18.4092V29H110.268V19.3027C110.268 17.0469 109.257 15.9189 107.235 15.9189C106.015 15.9189 105.043 16.2607 104.32 16.9443C103.598 17.6182 103.236 18.5264 103.236 19.6689V29H100.087V13.6631H103.236V15.6553H103.31C103.769 14.9717 104.418 14.4004 105.258 13.9414C106.107 13.4824 107.138 13.2529 108.349 13.2529ZM127.099 7.55469H130.248V29H127.099V27.2275H127.04C126.562 27.8525 125.932 28.3799 125.15 28.8096C124.369 29.2393 123.437 29.4541 122.353 29.4541C120.351 29.4541 118.71 28.7217 117.431 27.2568C116.151 25.792 115.512 23.8242 115.512 21.3535C115.512 18.8828 116.151 16.915 117.431 15.4502C118.71 13.9854 120.351 13.2529 122.353 13.2529C123.456 13.2529 124.398 13.4678 125.18 13.8975C125.971 14.3174 126.591 14.8594 127.04 15.5234H127.099V7.55469ZM122.895 26.876C124.184 26.876 125.199 26.3828 125.941 25.3965C126.693 24.4004 127.069 23.0527 127.069 21.3535C127.069 19.6445 126.693 18.2969 125.941 17.3105C125.199 16.3242 124.184 15.8311 122.895 15.8311C121.566 15.8311 120.526 16.3584 119.774 17.4131C119.032 18.4678 118.661 19.7812 118.661 21.3535C118.661 22.9258 119.032 24.2393 119.774 25.2939C120.526 26.3486 121.566 26.876 122.895 26.876Z" fill="#232323"/>
<path d="M138.433 13V8.71094H140.264C140.709 8.71094 141.062 8.81934 141.321 9.03613C141.583 9.25293 141.714 9.55469 141.714 9.94141C141.714 10.2344 141.645 10.4697 141.506 10.6475C141.367 10.8252 141.171 10.9453 140.917 11.0078V11.0195C141.073 11.0488 141.203 11.1162 141.307 11.2217C141.412 11.3271 141.486 11.4492 141.529 11.5879C141.572 11.7266 141.605 11.875 141.629 12.0332C141.654 12.1895 141.668 12.334 141.67 12.4668C141.674 12.5977 141.684 12.71 141.699 12.8037C141.717 12.8955 141.742 12.9473 141.775 12.959V13H141.025C140.996 12.9746 140.976 12.9141 140.964 12.8184C140.954 12.7207 140.95 12.6123 140.952 12.4932C140.954 12.3721 140.944 12.2432 140.923 12.1064C140.901 11.9697 140.869 11.8457 140.826 11.7344C140.783 11.623 140.708 11.5303 140.601 11.4561C140.493 11.3818 140.358 11.3447 140.196 11.3447H139.147V13H138.433ZM139.147 9.31738V10.7324H140.111C140.211 10.7324 140.299 10.7285 140.375 10.7207C140.451 10.7109 140.53 10.6914 140.612 10.6621C140.696 10.6328 140.766 10.5938 140.82 10.5449C140.875 10.4941 140.92 10.4248 140.955 10.3369C140.99 10.249 141.008 10.1445 141.008 10.0234C141.008 9.9043 140.99 9.80078 140.955 9.71289C140.92 9.625 140.875 9.55664 140.82 9.50781C140.766 9.45703 140.697 9.41699 140.615 9.3877C140.533 9.3584 140.453 9.33984 140.375 9.33203C140.299 9.32227 140.211 9.31738 140.111 9.31738H139.147Z" fill="#232323"/>
<circle cx="140" cy="11" r="4.5" stroke="#3A3A3A"/>
</svg>
