<svg width="20" height="18" viewBox="0 0 20 18" fill="none" xmlns="http://www.w3.org/2000/svg">
<path d="M19.7705 16.7919L15.4317 12.8859C15.9685 12.2819 16.4158 11.6376 16.7736 10.9128C17.2209 9.94631 17.4445 8.89933 17.4445 7.85235C17.4445 6.80537 17.2209 5.75839 16.7736 4.79195C16.3263 3.86577 15.7001 3.02013 14.895 2.2953C14.0898 1.57047 13.1505 1.00671 12.1217 0.604027C11.0482 0.201342 9.88524 0 8.72227 0C7.5593 0 6.39633 0.201342 5.32282 0.604027C4.29404 1.00671 3.35472 1.57047 2.54959 2.2953C1.74445 3.02013 1.11824 3.86577 0.670944 4.79195C0.223648 5.75839 0 6.80537 0 7.85235C0 8.89933 0.223648 9.94631 0.670944 10.9128C1.11824 11.8389 1.74445 12.6846 2.54959 13.4094C3.35472 14.1342 4.29404 14.698 5.32282 15.1007C6.39633 15.5034 7.5593 15.7047 8.72227 15.7047C9.88524 15.7047 11.0482 15.5034 12.1217 15.1007C12.9269 14.7785 13.6425 14.3758 14.3135 13.8926L18.6522 17.7987C18.7864 17.9195 19.0101 18 19.189 18C19.3679 18 19.5916 17.9195 19.7258 17.7987C20.0836 17.5168 20.0836 17.0738 19.7705 16.7919ZM8.767 14.2953C4.8308 14.2953 1.61027 11.396 1.61027 7.85235C1.61027 4.30872 4.8308 1.4094 8.767 1.4094C12.7032 1.4094 15.9237 4.30872 15.9237 7.85235C15.9237 11.396 12.7032 14.2953 8.767 14.2953Z" fill="#333333"/>
</svg>
