<svg width="20" height="22" viewBox="0 0 20 22" fill="none" xmlns="http://www.w3.org/2000/svg">
<path d="M10 10.6237C8.86355 10.6239 7.75257 10.3125 6.80756 9.72888C5.86256 9.14529 5.12598 8.31574 4.69097 7.34514C4.25596 6.37453 4.14206 5.30647 4.36368 4.27602C4.58529 3.24557 5.13247 2.29902 5.93601 1.55607C6.73955 0.813118 7.76336 0.30714 8.87797 0.102121C9.99257 -0.102897 11.1479 0.00225377 12.1979 0.404275C13.2478 0.806297 14.1453 1.48713 14.7767 2.36068C15.4081 3.23423 15.7451 4.26125 15.7451 5.31187C15.7436 6.72013 15.1379 8.07033 14.0608 9.06619C12.9837 10.062 11.5233 10.6222 10 10.6237ZM10 1.53185C9.19108 1.53171 8.40029 1.75334 7.72763 2.16872C7.05497 2.5841 6.53067 3.17456 6.22104 3.86543C5.91141 4.5563 5.83036 5.31654 5.98813 6.05C6.14591 6.78346 6.53542 7.45719 7.10741 7.98598C7.67941 8.51477 8.40818 8.87487 9.20156 9.02072C9.99494 9.16658 10.8173 9.09165 11.5646 8.8054C12.3119 8.51916 12.9506 8.03446 13.3999 7.41261C13.8493 6.79076 14.089 6.05969 14.0888 5.31187C14.0876 4.3097 13.6564 3.34891 12.8899 2.64027C12.1233 1.93162 11.084 1.533 10 1.53185ZM19.1719 22H0.82811L0 21.2344C-1.95685e-08 20.0204 0.258658 18.8183 0.761205 17.6966C1.26375 16.575 2.00035 15.5559 2.92893 14.6974C3.85752 13.839 4.95991 13.158 6.17316 12.6934C7.38642 12.2288 8.68678 11.9897 10 11.9897C11.3132 11.9897 12.6136 12.2288 13.8268 12.6934C15.0401 13.158 16.1425 13.839 17.0711 14.6974C17.9997 15.5559 18.7362 16.575 19.2388 17.6966C19.7413 18.8183 20 20.0204 20 21.2344L19.1719 22ZM1.69539 20.4689H18.3046C18.1021 18.5626 17.1397 16.7942 15.6047 15.5077C14.0697 14.2212 12.0719 13.5086 10 13.5086C7.92809 13.5086 5.93027 14.2212 4.39528 15.5077C2.86029 16.7942 1.89791 18.5626 1.69539 20.4689Z" fill="#333333"/>
</svg>
