<?xml version="1.0" encoding="utf-8"?><svg viewBox="0 0 145 36" xmlns="http://www.w3.org/2000/svg" xmlns:xlink="http://www.w3.org/1999/xlink"><style>:root>svg{display:none}:root>svg:target{display:block}</style><svg fill="none" viewBox="0 0 20 24" id="cart" xmlns="http://www.w3.org/2000/svg"><path d="M19.03 6.806c-.033-.358-.298-.619-.663-.619H14.72v-1.4C14.72 2.149 12.532 0 9.847 0 7.16 0 4.973 2.15 4.973 4.787v1.4H1.326c-.365 0-.663.26-.663.619L0 23.316a.71.71 0 00.199.489.66.66 0 00.464.195h18.666a.681.681 0 00.497-.195.532.532 0 00.166-.489l-.962-16.51zM6.3 4.787c0-1.921 1.59-3.485 3.547-3.485 1.956 0 3.547 1.596 3.547 3.485v1.4H6.3v-1.4zm-4.94 17.91L1.955 7.49h3.017v5.633h1.326v-5.6h7.062v5.633h1.326V7.522h3.017l.928 15.176H1.36z" fill="#333"/></svg><svg fill="none" viewBox="0 0 24 22" id="favorites" xmlns="http://www.w3.org/2000/svg"><path d="M12.037 22a1.391 1.391 0 01-.588-.122 1.486 1.486 0 01-.495-.363l-9.09-9.817a6.92 6.92 0 01-1.41-2.307 7.34 7.34 0 01.13-5.414 6.845 6.845 0 011.52-2.225A6.089 6.089 0 014.224.428a5.755 5.755 0 012.43-.33c1.665.119 3.232.887 4.41 2.162l.973 1.05 1.203-1.299A6.318 6.318 0 0115.374.49a5.92 5.92 0 012.518-.487 5.95 5.95 0 012.49.629c.783.39 1.483.948 2.058 1.64.55.666.97 1.444 1.235 2.288.265.844.37 1.738.308 2.627-.11 1.796-.822 3.489-2.002 4.76l-8.861 9.57c-.14.155-.31.279-.495.362a1.392 1.392 0 01-.588.122zM6.239 1.503c-1.196-.014-2.354.454-3.249 1.312a5.401 5.401 0 00-1.21 1.76 5.796 5.796 0 00-.107 4.292 5.463 5.463 0 001.12 1.827l9.09 9.817c.02.023.044.042.07.054a.195.195 0 00.237-.054l8.861-9.569c1.991-2.15 2.177-5.611.416-7.714a5.059 5.059 0 00-1.63-1.307 4.683 4.683 0 00-3.975-.116 5 5 0 00-1.692 1.21l-1.674 1.796a.642.642 0 01-.464.204.642.642 0 01-.465-.204l-1.433-1.547a5.5 5.5 0 00-1.785-1.3 5.153 5.153 0 00-2.11-.46z" fill="#333"/></svg><svg fill="none" viewBox="0 0 20 15" id="flagUS" xmlns="http://www.w3.org/2000/svg"><path d="M.002.002H20v14.996H.002V.002z" fill="#F5F5F5"/><path d="M.002.002H20v1.154H.002V.002zM.002 2.31H20v1.153H.002V2.309zM.002 4.616H20V5.77H.002V4.616zM.002 6.923H20v1.154H.002V6.923zM.002 9.23H20v1.154H.002V9.23zM.002 11.537H20v1.154H.002v-1.154zM.002 13.844H20v1.154H.002v-1.154z" fill="#BF0A30"/><path d="M.002 0h8v8.074h-8V0z" fill="#002868"/><path d="M.76.75L.685.43.614.75H.378L.57.947l-.074.32.19-.199.192.198L.804.947.995.75H.76zM2.086.75L2.013.43 1.94.75h-.235l.19.197-.073.32.19-.199.191.198L2.13.947 2.32.75h-.234zM3.412.75L3.339.43l-.073.32H3.03l.192.197-.073.32.19-.199.19.198-.072-.319.19-.197h-.235zM4.738.75L4.665.43l-.072.32h-.236l.191.197-.074.32.19-.199.192.198-.074-.319.192-.197h-.236zM6.109.947L6.3.75h-.236L5.991.43l-.073.32h-.235l.19.197-.072.32.19-.199.19.198L6.11.947zM7.435.947l.19-.197H7.39L7.318.43l-.073.32h-.236L7.2.947l-.073.32.19-.199.191.198-.073-.319zM1.35 1.24l-.073.32h-.235l.19.197-.073.319.19-.197.191.197-.073-.32.191-.197h-.236L1.35 1.24zM2.749 1.56l-.073-.32-.073.32h-.235l.19.197-.072.319.19-.197.19.197-.072-.32.19-.197h-.235zM4.074 1.56l-.072-.32-.072.32h-.236l.19.197-.073.319.191-.197.19.197-.072-.32.19-.197h-.236zM5.4 1.56l-.072-.32-.072.32H5.02l.19.197-.072.319.19-.197.19.197-.072-.32.19-.197h-.235zM6.727 1.56l-.073-.32-.072.32h-.236l.19.197-.072.319.19-.197.19.197-.072-.32.19-.197h-.235zM.76 2.37l-.074-.32-.072.32-.236-.001.192.197-.074.32.19-.198.192.198-.074-.32.191-.197H.76zM2.086 2.37l-.073-.32-.073.32-.235-.001.19.197-.073.32.19-.198.191.198-.073-.32.19-.197h-.234zM3.412 2.37l-.073-.32-.073.32-.236-.001.192.197-.073.32.19-.198.19.198-.072-.32.19-.197h-.235zM4.738 2.37l-.073-.32-.072.32-.236-.001.191.197-.074.32.19-.198.192.198-.074-.32.192-.197h-.236zM6.064 2.37l-.073-.32-.073.32-.235-.001.19.197-.072.32.19-.198.19.198-.072-.32.191-.197h-.236zM7.435 2.566l.19-.197H7.39l-.072-.32-.073.32h-.236l.191.197-.073.32.19-.198.191.198-.073-.32zM1.35 2.819l-.073.319h-.235l.19.197-.073.32.19-.198.191.197-.073-.319.191-.197h-.236l-.072-.32zM2.749 3.138l-.073-.32-.073.32h-.235l.19.197-.072.32.19-.198.19.197-.072-.319.19-.197h-.235zM4.074 3.138l-.072-.32-.072.32h-.236l.19.197-.073.32.191-.198.19.197-.072-.319.19-.197h-.236zM5.4 3.138l-.072-.32-.072.32H5.02l.19.197-.072.32.19-.198.19.197-.072-.319.19-.197h-.235zM6.727 3.138l-.073-.32-.072.32h-.236l.19.197-.072.32.19-.198.19.197-.072-.319.19-.197h-.235zM.76 3.948l-.074-.32-.072.32H.378l.192.197-.074.319.19-.198.192.198-.074-.32.191-.197-.236.001zM2.086 3.948l-.073-.32-.073.32h-.235l.19.197-.073.319.19-.198.191.198-.073-.32.19-.197-.234.001zM3.412 3.948l-.073-.32-.073.32H3.03l.192.197-.073.319.19-.198.19.198-.072-.32.19-.197-.235.001zM4.738 3.948l-.073-.32-.072.32h-.236l.191.197-.074.319.19-.198.192.198-.074-.32.192-.197-.236.001zM6.064 3.948l-.073-.32-.073.32h-.235l.19.197-.072.319.19-.198.19.198-.072-.32.191-.197-.236.001zM7.435 4.145l.19-.198-.235.001-.072-.32-.073.32h-.236l.191.197-.073.319.19-.198.191.198-.073-.32zM1.35 4.42l-.073.32h-.235l.19.196-.073.32.19-.198.191.198-.073-.32.191-.197h-.236L1.35 4.42zM2.749 4.74l-.073-.32-.073.32h-.235l.19.196-.072.32.19-.198.19.198-.072-.32.19-.197h-.235zM4.074 4.74l-.072-.32-.072.32h-.236l.19.196-.073.32.191-.198.19.198-.072-.32.19-.197h-.236zM5.4 4.74l-.072-.32-.072.32H5.02l.19.196-.072.32.19-.198.19.198-.072-.32.19-.197h-.235zM6.727 4.74l-.073-.32-.072.32h-.236l.19.196-.072.32.19-.198.19.198-.072-.32.19-.197h-.235zM.76 5.55l-.074-.32-.072.32-.236-.001.192.197-.074.32.19-.198.192.198-.074-.32.191-.197H.76zM2.086 5.55l-.073-.32-.073.32-.235-.001.19.197-.073.32.19-.198.191.198-.073-.32.19-.197h-.234zM3.412 5.55l-.073-.32-.073.32-.236-.001.192.197-.073.32.19-.198.19.198-.072-.32.19-.197h-.235zM4.738 5.55l-.073-.32-.072.32-.236-.001.191.197-.074.32.19-.198.192.198-.074-.32.192-.197h-.236zM6.064 5.55l-.073-.32-.073.32-.235-.001.19.197-.072.32.19-.198.19.198-.072-.32.191-.197h-.236zM7.435 5.746l.19-.197H7.39l-.072-.32-.073.32h-.236l.191.197-.073.32.19-.198.191.198-.073-.32zM1.35 5.999l-.073.32h-.235l.19.196-.073.32.19-.198.191.198-.073-.32.191-.197h-.236L1.35 6zM2.749 6.318L2.676 6l-.073.32h-.235l.19.196-.072.32.19-.198.19.198-.072-.32.19-.197h-.235zM4.074 6.318L4.002 6l-.072.32h-.236l.19.196-.073.32.191-.198.19.198-.072-.32.19-.197h-.236zM5.4 6.318L5.329 6l-.072.32H5.02l.19.196-.072.32.19-.198.19.198-.072-.32.19-.197h-.235zM6.727 6.318L6.654 6l-.072.32h-.236l.19.196-.072.32.19-.198.19.198-.072-.32.19-.197h-.235zM.76 7.128l-.074-.32-.072.32H.378l.192.196-.074.32.19-.198.192.198-.074-.32.191-.197-.236.001zM2.086 7.128l-.073-.32-.073.32h-.235l.19.196-.073.32.19-.198.191.198-.073-.32.19-.197-.234.001zM3.412 7.128l-.073-.32-.073.32H3.03l.192.196-.073.32.19-.198.19.198-.072-.32.19-.197-.235.001zM4.738 7.128l-.073-.32-.072.32h-.236l.191.196-.074.32.19-.198.192.198-.074-.32.192-.197-.236.001zM6.064 7.128l-.073-.32-.073.32h-.235l.19.196-.072.32.19-.198.19.198-.072-.32.191-.197-.236.001zM7.435 7.324l.19-.197-.235.001-.072-.32-.073.32h-.236l.191.196-.073.32.19-.198.191.198-.073-.32z" fill="#F5F5F5"/></svg><svg fill="none" viewBox="0 0 18 18" id="iconMapMarker" xmlns="http://www.w3.org/2000/svg"><path d="M9 3.36a2.865 2.865 0 100 5.73 2.865 2.865 0 000-5.73zm0 4.73a1.865 1.865 0 111.865-1.865A1.865 1.865 0 019 8.085v.005z" fill="#F8F8F8"/><path d="M9 1a5.895 5.895 0 00-5.89 5.865c0 2.335 1.31 4.29 2.27 5.715l.175.26a49.796 49.796 0 003.07 4l.38.445.38-.445a49.915 49.915 0 003.07-4l.175-.265c.955-1.425 2.265-3.375 2.265-5.71A5.895 5.895 0 009 1zm2.795 11l-.18.265c-.86 1.29-2 2.735-2.615 3.45-.59-.715-1.755-2.16-2.615-3.45L6.21 12c-.885-1.32-2.1-3.125-2.1-5.155a4.89 4.89 0 119.78 0c0 2.05-1.21 3.855-2.095 5.155z" fill="#F8F8F8"/></svg><svg fill="none" viewBox="0 0 145 36" id="logo" xmlns="http://www.w3.org/2000/svg"><path d="M.536 7.555h3.662L7.86 24.166h.059L12.24 7.555h3.662l4.35 16.611h.06l3.662-16.611h3.662L22.26 29h-3.75L14.1 12.198h-.058L9.662 29h-3.78L.537 7.555zm28.506 19.672c1.387 1.485 3.267 2.227 5.64 2.227 2.373 0 4.253-.742 5.64-2.227 1.386-1.494 2.08-3.452 2.08-5.873 0-2.422-.694-4.375-2.08-5.86-1.387-1.494-3.267-2.241-5.64-2.241-2.373 0-4.253.747-5.64 2.241-1.377 1.485-2.065 3.438-2.065 5.86 0 2.421.688 4.38 2.065 5.873zm9.009-1.89c-.791 1.026-1.914 1.539-3.37 1.539-1.454 0-2.578-.513-3.368-1.538-.791-1.026-1.187-2.354-1.187-3.985 0-1.65.395-2.983 1.186-3.998.791-1.016 1.915-1.524 3.37-1.524s2.578.513 3.369 1.538c.8 1.016 1.201 2.344 1.201 3.985 0 1.63-.4 2.959-1.201 3.984zm7.778 1.89c1.387 1.485 3.267 2.227 5.64 2.227 2.373 0 4.253-.742 5.64-2.227 1.386-1.494 2.08-3.452 2.08-5.873 0-2.422-.694-4.375-2.08-5.86-1.387-1.494-3.267-2.241-5.64-2.241-2.373 0-4.253.747-5.64 2.241-1.377 1.485-2.065 3.438-2.065 5.86 0 2.421.688 4.38 2.065 5.873zm9.009-1.89c-.791 1.026-1.914 1.539-3.37 1.539-1.454 0-2.577-.513-3.368-1.538-.791-1.026-1.187-2.354-1.187-3.985 0-1.65.396-2.983 1.187-3.998.79-1.016 1.914-1.524 3.369-1.524 1.455 0 2.578.513 3.369 1.538.8 1.016 1.201 2.344 1.201 3.985 0 1.63-.4 2.959-1.201 3.984zm17.3-17.782h3.15V29h-3.15v-1.773h-.059c-.478.625-1.108 1.153-1.89 1.583-.78.43-1.713.644-2.797.644-2.002 0-3.643-.732-4.922-2.197-1.28-1.465-1.92-3.433-1.92-5.904 0-2.47.64-4.438 1.92-5.903 1.279-1.465 2.92-2.197 4.922-2.197 1.103 0 2.046.215 2.827.645.79.42 1.41.961 1.86 1.625h.059V7.555zm-4.204 19.321c1.289 0 2.304-.493 3.047-1.48.751-.996 1.127-2.343 1.127-4.043 0-1.709-.376-3.056-1.127-4.043-.743-.986-1.758-1.479-3.047-1.479-1.328 0-2.369.527-3.12 1.582-.743 1.055-1.114 2.368-1.114 3.94 0 1.573.371 2.886 1.114 3.94.751 1.056 1.792 1.583 3.12 1.583zm10.18-19.321h3.194V29h-3.194V7.555zM93.627 17.69c0-1.298-.918-1.948-2.754-1.948-1.25 0-2.144.21-2.68.63-.538.42-.845 1.128-.924 2.124h-3.061c.078-1.582.66-2.851 1.743-3.809 1.094-.957 2.735-1.435 4.922-1.435 3.936 0 5.903 1.787 5.903 5.361v7.295c0 .586.098 1.006.293 1.26.205.244.6.337 1.187.278v1.494a5.279 5.279 0 01-1.831.323c-.84 0-1.475-.162-1.904-.484-.43-.322-.718-.86-.865-1.611h-.058c-.508.703-1.197 1.26-2.066 1.67-.86.41-1.86.615-3.003.615-1.543 0-2.768-.4-3.676-1.201-.909-.81-1.363-1.87-1.363-3.179 0-.654.098-1.235.293-1.743a3.91 3.91 0 01.82-1.304c.342-.361.787-.678 1.334-.952a10.006 10.006 0 011.728-.659 26.404 26.404 0 012.153-.513c.42-.078.743-.141.967-.19.225-.049.493-.112.806-.19.322-.079.566-.152.732-.22.166-.069.347-.157.542-.264.196-.107.337-.22.425-.337.098-.127.176-.273.234-.44.069-.175.103-.366.103-.57zm-4.41 9.273c1.339 0 2.408-.327 3.209-.982.8-.654 1.201-1.587 1.201-2.797V20.87c-.498.352-1.567.694-3.208 1.025-1.338.294-2.3.655-2.886 1.085-.576.43-.864 1.025-.864 1.787 0 1.464.85 2.197 2.549 2.197zm19.132-13.711c1.504 0 2.729.44 3.676 1.318.948.87 1.421 2.149 1.421 3.838V29h-3.178v-9.697c0-2.256-1.011-3.384-3.033-3.384-1.22 0-2.192.342-2.915 1.025-.722.674-1.084 1.582-1.084 2.725V29h-3.149V13.663h3.149v1.992h.074c.459-.683 1.108-1.255 1.948-1.714.849-.459 1.88-.688 3.091-.688zm18.75-5.698h3.149V29h-3.149v-1.773h-.059c-.478.625-1.108 1.153-1.89 1.583-.781.43-1.713.644-2.797.644-2.002 0-3.643-.732-4.922-2.197-1.28-1.465-1.919-3.433-1.919-5.904 0-2.47.639-4.438 1.919-5.903 1.279-1.465 2.92-2.197 4.922-2.197 1.103 0 2.045.215 2.827.645.791.42 1.411.961 1.86 1.625h.059V7.555zm-4.204 19.321c1.289 0 2.304-.493 3.046-1.48.752-.996 1.128-2.343 1.128-4.043 0-1.709-.376-3.056-1.128-4.043-.742-.986-1.757-1.479-3.046-1.479-1.329 0-2.369.527-3.121 1.582-.742 1.055-1.113 2.368-1.113 3.94 0 1.573.371 2.886 1.113 3.94.752 1.056 1.792 1.583 3.121 1.583zM138.433 13V8.71h1.831c.445 0 .798.11 1.057.326.262.217.393.519.393.905 0 .293-.069.529-.208.707a1.032 1.032 0 01-.589.36v.012a.72.72 0 01.39.202.883.883 0 01.222.366c.043.139.076.287.1.445.025.157.039.301.041.434.004.13.014.243.029.337.018.091.043.143.076.155V13h-.75c-.029-.025-.049-.086-.061-.182a2.758 2.758 0 01-.012-.325 2.306 2.306 0 00-.029-.387 1.845 1.845 0 00-.097-.372.597.597 0 00-.225-.278.698.698 0 00-.405-.111h-1.049V13h-.714zm.714-3.683v1.415h.964c.1 0 .188-.003.264-.011.076-.01.155-.03.237-.059a.602.602 0 00.208-.117.56.56 0 00.135-.208.846.846 0 00.053-.314.837.837 0 00-.053-.31.531.531 0 00-.34-.325 1.013 1.013 0 00-.24-.056 2.097 2.097 0 00-.264-.015h-.964z" fill="#232323"/><circle cx="140" cy="11" r="4.5" stroke="#3A3A3A"/></svg><svg fill="none" viewBox="0 0 20 18" id="search" xmlns="http://www.w3.org/2000/svg"><path d="M19.77 16.792l-4.338-3.906a8.83 8.83 0 001.342-1.973 7.29 7.29 0 00.67-3.06 7.29 7.29 0 00-.67-3.061 8.071 8.071 0 00-1.879-2.497A9.058 9.058 0 0012.122.604 9.719 9.719 0 008.722 0a9.72 9.72 0 00-3.4.604A9.057 9.057 0 002.55 2.295 8.07 8.07 0 00.67 4.792 7.29 7.29 0 000 7.852a7.29 7.29 0 00.67 3.06 8.07 8.07 0 001.88 2.497 9.058 9.058 0 002.773 1.692 9.719 9.719 0 003.4.604 9.719 9.719 0 003.399-.604c.805-.323 1.52-.725 2.191-1.208l4.34 3.906c.133.12.357.201.536.201.179 0 .403-.08.537-.201.358-.282.358-.725.044-1.007zM8.767 14.295c-3.936 0-7.157-2.899-7.157-6.443 0-3.543 3.22-6.443 7.157-6.443 3.936 0 7.157 2.9 7.157 6.443 0 3.544-3.22 6.443-7.157 6.443z" fill="#333"/></svg><svg fill="none" viewBox="0 0 20 22" id="user" xmlns="http://www.w3.org/2000/svg"><path d="M10 10.624a6.084 6.084 0 01-3.192-.895A5.426 5.426 0 014.69 7.345a4.94 4.94 0 01-.327-3.069 5.2 5.2 0 011.572-2.72A5.905 5.905 0 018.878.102a6.183 6.183 0 013.32.302 5.673 5.673 0 012.579 1.957c.631.873.968 1.9.968 2.95-.001 1.41-.607 2.76-1.684 3.755-1.077.996-2.538 1.556-4.061 1.558zm0-9.092c-.809 0-1.6.221-2.272.637A3.862 3.862 0 006.22 3.865c-.31.691-.39 1.452-.233 2.185a3.702 3.702 0 001.12 1.936c.571.529 1.3.889 2.094 1.035a4.4 4.4 0 002.363-.216A4.037 4.037 0 0013.4 7.413a3.58 3.58 0 00.689-2.101c-.001-1.002-.433-1.963-1.2-2.672A4.27 4.27 0 0010 1.532zM19.172 22H.828L0 21.234c0-1.214.259-2.416.761-3.537a9.233 9.233 0 012.168-3 10.092 10.092 0 013.244-2.004A10.713 10.713 0 0110 11.99c1.313 0 2.614.239 3.827.703a10.092 10.092 0 013.244 2.004 9.234 9.234 0 012.168 3A8.644 8.644 0 0120 21.234l-.828.766zM1.695 20.469h16.61c-.203-1.906-1.165-3.675-2.7-4.961-1.535-1.287-3.533-2-5.605-2-2.072 0-4.07.713-5.605 2-1.535 1.286-2.497 3.055-2.7 4.96z" fill="#333"/></svg></svg>